# Blender v2.79 (sub 0) OBJ File: ''
# www.blender.org
mtllib WackyCube2.mtl
o Cube
v -1.000000 -1.000000 1.000000
v -1.000000 1.000000 1.000000
v -1.000000 -1.000000 -1.000000
v -1.000000 1.000000 -1.000000
v 1.000000 -1.000000 1.000000
v 1.000000 1.000000 1.000000
v 1.000000 -1.000000 -1.000000
v 1.000000 1.000000 -1.000000
v -1.000000 -0.440504 0.440504
v -1.000000 0.440504 0.440504
v -1.000000 0.440504 -0.440504
v -1.000000 -0.440504 -0.440504
v -0.440504 -0.440504 -1.000000
v -0.440504 0.440504 -1.000000
v 0.440504 0.440504 -1.000000
v 0.440504 -0.440504 -1.000000
v 1.000000 -0.440504 -0.440504
v 1.000000 0.440504 -0.440504
v 1.000000 0.440504 0.440504
v 1.000000 -0.440504 0.440504
v 0.440504 -0.440504 1.000000
v 0.440504 0.440504 1.000000
v -0.440504 0.440504 1.000000
v -0.440504 -0.440504 1.000000
v -0.440504 -1.000000 -0.440504
v 0.440504 -1.000000 -0.440504
v 0.440504 -1.000000 0.440504
v -0.440504 -1.000000 0.440504
v 0.440504 1.000000 -0.440504
v -0.440504 1.000000 -0.440504
v -0.440504 1.000000 0.440504
v 0.440504 1.000000 0.440504
v -3.630396 -0.096318 0.096318
v -3.630396 0.096318 0.096318
v -3.630396 0.096318 -0.096318
v -3.630396 -0.096318 -0.096318
v -0.096318 -0.096318 -3.630396
v -0.096318 0.096318 -3.630396
v 0.096318 0.096318 -3.630396
v 0.096318 -0.096318 -3.630396
v 3.630396 -0.096318 -0.096318
v 3.630396 0.096318 -0.096318
v 3.630396 0.096318 0.096318
v 3.630396 -0.096318 0.096318
v 0.096318 -0.096318 3.630396
v 0.096318 0.096318 3.630396
v -0.096318 0.096318 3.630396
v -0.096318 -0.096318 3.630396
v -0.096318 -3.630396 -0.096318
v 0.096318 -3.630396 -0.096318
v 0.096318 -3.630396 0.096318
v -0.096318 -3.630396 0.096318
v 0.096318 3.630396 -0.096318
v -0.096318 3.630396 -0.096318
v -0.096318 3.630396 0.096318
v 0.096318 3.630396 0.096318
v -5.277157 -1.226547 1.226547
v -5.277157 1.226547 1.226547
v -5.277157 1.226547 -1.226547
v -5.277157 -1.226547 -1.226547
v -1.226547 -1.226547 -5.277157
v -1.226547 1.226547 -5.277157
v 1.226547 1.226547 -5.277157
v 1.226547 -1.226547 -5.277157
v 5.277157 -1.226547 -1.226547
v 5.277157 1.226547 -1.226547
v 5.277157 1.226547 1.226547
v 5.277157 -1.226547 1.226547
v 1.226547 -1.226547 5.277157
v 1.226547 1.226547 5.277157
v -1.226547 1.226547 5.277157
v -1.226547 -1.226547 5.277157
v -1.226547 -5.277157 -1.226547
v 1.226547 -5.277157 -1.226547
v 1.226547 -5.277157 1.226547
v -1.226547 -5.277157 1.226547
v 1.226547 5.277157 -1.226547
v -1.226547 5.277157 -1.226547
v -1.226547 5.277157 1.226547
v 1.226547 5.277157 1.226547
vn 0.0000 1.0000 0.0000
vn 0.0000 -1.0000 0.0000
vn -1.0000 0.0000 0.0000
vn 0.0000 0.0000 -1.0000
vn 1.0000 0.0000 0.0000
vn 0.0000 0.0000 1.0000
vn 0.0000 0.5659 -0.8245
vn 0.0000 -0.1297 -0.9915
vn 0.9915 -0.1297 0.0000
vn 0.0000 -0.1297 0.9915
vn -0.9915 -0.1297 0.0000
vn 0.0000 0.1297 -0.9915
vn -0.9915 0.1297 0.0000
vn 0.0000 0.1297 0.9915
vn 0.9915 0.1297 0.0000
vn 0.0000 -0.5659 -0.8245
vn 0.8245 0.5659 0.0000
vn -0.8245 -0.5659 0.0000
vn 0.0000 0.5659 0.8245
vn 0.0000 -0.5659 0.8245
vn -0.8245 0.5659 0.0000
vn 0.8245 -0.5659 0.0000
vn 0.0000 0.8245 -0.5659
vn -0.1297 0.0000 0.9915
vn -0.1297 0.9915 0.0000
vn -0.1297 0.0000 -0.9915
vn -0.1297 -0.9915 0.0000
vn 0.8245 0.0000 0.5659
vn -0.9915 0.0000 -0.1297
vn 0.0000 0.9915 -0.1297
vn 0.9915 0.0000 -0.1297
vn 0.0000 -0.9915 -0.1297
vn 0.1297 0.0000 -0.9915
vn 0.1297 0.9915 0.0000
vn 0.1297 0.0000 0.9915
vn 0.1297 -0.9915 0.0000
vn -0.5659 0.8245 0.0000
vn 0.9915 0.0000 0.1297
vn 0.0000 0.9915 0.1297
vn -0.9915 0.0000 0.1297
vn 0.0000 -0.9915 0.1297
vn 0.5659 0.0000 -0.8245
vn 0.8245 0.0000 -0.5659
vn 0.5659 -0.8245 0.0000
vn -0.5659 0.0000 0.8245
vn 0.0000 -0.8245 0.5659
vn -0.8245 0.0000 -0.5659
vn -0.5659 -0.8245 0.0000
vn 0.0000 -0.8245 -0.5659
vn 0.5659 0.0000 0.8245
vn -0.8245 0.0000 0.5659
vn 0.5659 0.8245 0.0000
vn -0.5659 0.0000 -0.8245
vn 0.0000 0.8245 0.5659
usemtl Material
s off
f 77//1 78//1 79//1 80//1
f 73//2 74//2 75//2 76//2
f 1//3 2//3 10//3 9//3
f 2//3 4//3 11//3 10//3
f 4//3 3//3 12//3 11//3
f 3//3 1//3 9//3 12//3
f 3//4 4//4 14//4 13//4
f 4//4 8//4 15//4 14//4
f 8//4 7//4 16//4 15//4
f 7//4 3//4 13//4 16//4
f 7//5 8//5 18//5 17//5
f 8//5 6//5 19//5 18//5
f 6//5 5//5 20//5 19//5
f 5//5 7//5 17//5 20//5
f 5//6 6//6 22//6 21//6
f 6//6 2//6 23//6 22//6
f 2//6 1//6 24//6 23//6
f 1//6 5//6 21//6 24//6
f 3//2 7//2 26//2 25//2
f 7//2 5//2 27//2 26//2
f 5//2 1//2 28//2 27//2
f 1//2 3//2 25//2 28//2
f 8//1 4//1 30//1 29//1
f 4//1 2//1 31//1 30//1
f 2//1 6//1 32//1 31//1
f 6//1 8//1 29//1 32//1
f 49//7 50//7 74//7 73//7
f 26//8 50//8 49//8 25//8
f 27//9 51//9 50//9 26//9
f 28//10 52//10 51//10 27//10
f 25//11 49//11 52//11 28//11
f 30//12 54//12 53//12 29//12
f 31//13 55//13 54//13 30//13
f 32//14 56//14 55//14 31//14
f 29//15 53//15 56//15 32//15
f 53//16 54//16 78//16 77//16
f 50//17 51//17 75//17 74//17
f 54//18 55//18 79//18 78//18
f 51//19 52//19 76//19 75//19
f 55//20 56//20 80//20 79//20
f 52//21 49//21 73//21 76//21
f 56//22 53//22 77//22 80//22
usemtl Material.002
f 69//6 70//6 71//6 72//6
f 65//5 66//5 67//5 68//5
f 61//4 62//4 63//4 64//4
f 57//3 58//3 59//3 60//3
f 46//23 47//23 71//23 70//23
f 10//24 34//24 33//24 9//24
f 11//25 35//25 34//25 10//25
f 12//26 36//26 35//26 11//26
f 9//27 33//27 36//27 12//27
f 39//28 40//28 64//28 63//28
f 14//29 38//29 37//29 13//29
f 15//30 39//30 38//30 14//30
f 16//31 40//31 39//31 15//31
f 13//32 37//32 40//32 16//32
f 18//33 42//33 41//33 17//33
f 19//34 43//34 42//34 18//34
f 20//35 44//35 43//35 19//35
f 17//36 41//36 44//36 20//36
f 42//37 43//37 67//37 66//37
f 22//38 46//38 45//38 21//38
f 23//39 47//39 46//39 22//39
f 24//40 48//40 47//40 23//40
f 21//41 45//41 48//41 24//41
f 35//42 36//42 60//42 59//42
f 45//43 46//43 70//43 69//43
f 36//44 33//44 57//44 60//44
f 43//45 44//45 68//45 67//45
f 40//46 37//46 61//46 64//46
f 47//47 48//47 72//47 71//47
f 44//48 41//48 65//48 68//48
f 48//49 45//49 69//49 72//49
f 33//50 34//50 58//50 57//50
f 37//51 38//51 62//51 61//51
f 34//52 35//52 59//52 58//52
f 41//53 42//53 66//53 65//53
f 38//54 39//54 63//54 62//54
